<?xml version="1.0"?><svg data-name="Layer 1" id="Layer_1" viewBox="0 0 512 512" xmlns="http://www.w3.org/2000/svg"><path d="M205.38,149h29.68a4.93,4.93,0,0,0,0-9.86H205.38a4.93,4.93,0,0,0,0,9.86Z"/><path d="M225.15,169a4.93,4.93,0,0,0-4.93-4.93H205.38a4.93,4.93,0,0,0,0,9.86h14.84A4.93,4.93,0,0,0,225.15,169Z"/><path d="M377.67,359.65l0,0-.19-.14-.09-.06-.28-.18-.36-.2-.09-.05-.56-.22h0a3.77,3.77,0,0,0-.58-.14h0l-61.76-11.74-13.47-13.56V310.51a105.68,105.68,0,0,0,65.18-84.45l22.69-9.92a4.92,4.92,0,0,0,3-4.52V85.49a4.93,4.93,0,0,0-9.86,0v71.19l-15.79-6.91A105.76,105.76,0,0,0,260.24,57.58h-8.48a105.76,105.76,0,0,0-105.19,92.19l-22.69,9.93a4.91,4.91,0,0,0-3,4.51v47.41a4.92,4.92,0,0,0,3,4.52l22.69,9.92a105.68,105.68,0,0,0,65.18,84.45v22.82l-13.47,13.56-61.76,11.74h0a5.15,5.15,0,0,0-1.15.37l-.13.07-.33.17-.29.2-.08.05-.19.14,0,0c-3.54,2.65-41.64,32.51-41.64,89.85a4.93,4.93,0,0,0,9.86,0,107.42,107.42,0,0,1,33.73-78.56c7,11.88,24.35,44.58,24.35,78.56a4.93,4.93,0,0,0,4.93,4.92H346.44a4.93,4.93,0,0,0,4.93-4.92c0-34,17.34-66.71,24.36-78.58a107.07,107.07,0,0,1,33.72,78.58,4.93,4.93,0,0,0,9.86,0C419.31,392.16,381.21,362.3,377.67,359.65Zm-224.56-202a4.94,4.94,0,0,0,2.93-4,95.94,95.94,0,0,1,95.72-86.23h8.48A95.94,95.94,0,0,1,356,153.66a4.94,4.94,0,0,0,2.93,4l22.33,9.75V183H332.77V171.4a74,74,0,0,0-73.88-73.87h-5.78a74,74,0,0,0-73.88,73.87V183H130.78V167.43Zm36,13.72a64.11,64.11,0,0,1,64-64h5.78a64.11,64.11,0,0,1,64,64v33a64.1,64.1,0,0,1-64,64h-5.78a64.1,64.1,0,0,1-64-64Zm-33,50.77a4.94,4.94,0,0,0-2.93-4l-22.33-9.75V192.84h48.45v11.59a74,74,0,0,0,73.88,73.88h5.78a74,74,0,0,0,73.88-73.88V192.84h48.45V208.4l-22.33,9.75a4.94,4.94,0,0,0-2.93,4,95.85,95.85,0,0,1-61.56,80,4.89,4.89,0,0,0-1.51.56,96.84,96.84,0,0,1-32.65,5.64h-8.48a96.84,96.84,0,0,1-32.65-5.64,4.89,4.89,0,0,0-1.51-.56A95.85,95.85,0,0,1,156,222.17Zm95.72,96.09h8.48a106.52,106.52,0,0,0,30.15-4.33v18.26c-6.7,3.42-22.23,13.52-34.39,37.88-12.16-24.36-27.69-34.46-34.39-37.88V313.93A106.52,106.52,0,0,0,251.76,318.26Zm-34,23c6.36,3.39,22.57,14.4,33.66,42.74a.47.47,0,0,0,.05.1,3.26,3.26,0,0,0,.26.53l.09.16a4.6,4.6,0,0,0,.32.45l.06.09c.15.17.31.34.47.49l0,0a4.8,4.8,0,0,0,1.5.93,4.54,4.54,0,0,0,1.05.28h.05a4.93,4.93,0,0,0,1.4,0h.05a4.54,4.54,0,0,0,1.05-.28,4.8,4.8,0,0,0,1.5-.93l0,0c.16-.15.32-.32.47-.49l.06-.09a4.6,4.6,0,0,0,.32-.45l.09-.16a3.26,3.26,0,0,0,.26-.53.47.47,0,0,0,0-.1c11-28.1,27.31-39.26,33.69-42.72l9.38,9.45a85.54,85.54,0,0,0-31.19,51.38,16.82,16.82,0,0,1-32.94,0,85.54,85.54,0,0,0-31.19-51.38ZM145.42,367l54.25-10.32A76,76,0,0,1,229.86,404,26.57,26.57,0,0,0,251.07,425v19.62H170.39C168.92,410.72,153,379.83,145.42,367Zm196.19,77.6H260.93V425A26.57,26.57,0,0,0,282.14,404a76,76,0,0,1,30.19-47.35L366.58,367C359,379.83,343.08,410.72,341.61,444.57Z"/></svg>